# This file uses centimeters as units for non-parametric coordinates.

mtllib vplane1.mtl
g default
v -0.380507 -0.277180 11.484038
v -0.351200 1.259461 11.484038
v -0.321892 2.796102 11.484038
v -0.292585 4.332742 11.484038
v -0.263277 5.869383 11.484038
v -0.233970 7.406023 11.484038
v -0.204662 8.942663 11.484038
v 0.669999 -0.297215 9.187231
v 0.699306 1.239425 9.187231
v 0.728614 2.776066 9.187231
v 0.757921 4.312706 9.187231
v 0.787229 5.849347 9.187231
v 0.816536 7.385988 9.187231
v 0.845844 8.922628 9.187231
v 1.720505 -0.317251 6.890423
v 1.749812 1.219389 6.890423
v 1.779120 2.756030 6.890423
v 1.808427 4.292670 6.890423
v 1.837735 5.829311 6.890423
v 1.867043 7.365952 6.890423
v 1.896350 8.902592 6.890423
v 2.771011 -0.337287 4.593615
v 2.800319 1.199354 4.593615
v 2.829626 2.735994 4.593615
v 2.858934 4.272634 4.593615
v 2.888241 5.809275 4.593615
v 2.917549 7.345916 4.593615
v 2.946856 8.882556 4.593615
v 3.821517 -0.357323 2.296807
v 3.850825 1.179318 2.296807
v 3.880132 2.715959 2.296807
v 3.909440 4.252599 2.296807
v 3.938748 5.789240 2.296807
v 3.968055 7.325880 2.296807
v 3.997363 8.862520 2.296807
v 4.872023 -0.377358 0.000000
v 4.901331 1.159282 0.000000
v 4.930639 2.695923 -0.000000
v 4.959946 4.232563 -0.000000
v 4.989254 5.769204 -0.000000
v 5.018561 7.305845 -0.000000
v 5.047869 8.842485 -0.000000
v 5.922530 -0.397394 -2.296808
v 5.951837 1.139246 -2.296808
v 5.981145 2.675887 -2.296808
v 6.010452 4.212527 -2.296808
v 6.039760 5.749168 -2.296808
v 6.069068 7.285809 -2.296808
v 6.098375 8.822449 -2.296808
v 6.973036 -0.417430 -4.593615
v 7.002343 1.119211 -4.593615
v 7.031651 2.655852 -4.593615
v 7.060958 4.192491 -4.593615
v 7.090266 5.729132 -4.593615
v 7.119573 7.265773 -4.593615
v 7.148881 8.802413 -4.593615
v 8.023542 -0.437465 -6.890423
v 8.052850 1.099175 -6.890423
v 8.082157 2.635816 -6.890423
v 8.111465 4.172456 -6.890423
v 8.140772 5.709097 -6.890423
v 8.170080 7.245737 -6.890423
v 8.199387 8.782377 -6.890423
v 9.074048 -0.457501 -9.187231
v 9.103356 1.079139 -9.187231
v 9.132663 2.615780 -9.187231
v 9.161971 4.152420 -9.187231
v 9.191279 5.689061 -9.187231
v 9.220586 7.225702 -9.187231
v 9.249894 8.762342 -9.187231
v 10.124554 -0.477537 -11.484038
v 10.153862 1.059103 -11.484038
v 10.183169 2.595744 -11.484038
v 10.212477 4.132384 -11.484038
v 10.241784 5.669025 -11.484038
v 10.271092 7.205666 -11.484038
v 10.300399 8.742306 -11.484038
vt 0.400000 0.000000
vt 0.500000 0.000000
vt 0.600000 0.000000
vt 0.700000 0.000000
vt 0.800000 0.000000
vt 0.900000 0.000000
vt 1.000000 0.000000
vt 0.400000 0.100000
vt 0.500000 0.100000
vt 0.600000 0.100000
vt 0.700000 0.100000
vt 0.800000 0.100000
vt 0.900000 0.100000
vt 1.000000 0.100000
vt 0.400000 0.200000
vt 0.500000 0.200000
vt 0.600000 0.200000
vt 0.700000 0.200000
vt 0.800000 0.200000
vt 0.900000 0.200000
vt 1.000000 0.200000
vt 0.400000 0.300000
vt 0.500000 0.300000
vt 0.600000 0.300000
vt 0.700000 0.300000
vt 0.800000 0.300000
vt 0.900000 0.300000
vt 1.000000 0.300000
vt 0.400000 0.400000
vt 0.500000 0.400000
vt 0.600000 0.400000
vt 0.700000 0.400000
vt 0.800000 0.400000
vt 0.900000 0.400000
vt 1.000000 0.400000
vt 0.400000 0.500000
vt 0.500000 0.500000
vt 0.600000 0.500000
vt 0.700000 0.500000
vt 0.800000 0.500000
vt 0.900000 0.500000
vt 1.000000 0.500000
vt 0.400000 0.600000
vt 0.500000 0.600000
vt 0.600000 0.600000
vt 0.700000 0.600000
vt 0.800000 0.600000
vt 0.900000 0.600000
vt 1.000000 0.600000
vt 0.400000 0.700000
vt 0.500000 0.700000
vt 0.600000 0.700000
vt 0.700000 0.700000
vt 0.800000 0.700000
vt 0.900000 0.700000
vt 1.000000 0.700000
vt 0.400000 0.800000
vt 0.500000 0.800000
vt 0.600000 0.800000
vt 0.700000 0.800000
vt 0.800000 0.800000
vt 0.900000 0.800000
vt 1.000000 0.800000
vt 0.400000 0.900000
vt 0.500000 0.900000
vt 0.600000 0.900000
vt 0.700000 0.900000
vt 0.800000 0.900000
vt 0.900000 0.900000
vt 1.000000 0.900000
vt 0.400000 1.000000
vt 0.500000 1.000000
vt 0.600000 1.000000
vt 0.700000 1.000000
vt 0.800000 1.000000
vt 0.900000 1.000000
vt 1.000000 1.000000
vn -0.909200 0.017341 -0.415998
vn -0.909200 0.017341 -0.415998
vn -0.909200 0.017341 -0.415998
vn -0.909200 0.017341 -0.415998
vn -0.909200 0.017341 -0.415998
vn -0.909200 0.017341 -0.415998
vn -0.909200 0.017341 -0.415998
vn -0.909200 0.017341 -0.415998
vn -0.909200 0.017341 -0.415998
vn -0.909200 0.017341 -0.415998
vn -0.909200 0.017341 -0.415998
vn -0.909200 0.017341 -0.415998
vn -0.909200 0.017341 -0.415998
vn -0.909200 0.017341 -0.415998
vn -0.909200 0.017341 -0.415998
vn -0.909200 0.017341 -0.415998
vn -0.909200 0.017341 -0.415998
vn -0.909200 0.017341 -0.415998
vn -0.909200 0.017341 -0.415998
vn -0.909200 0.017341 -0.415998
vn -0.909200 0.017341 -0.415998
vn -0.909200 0.017341 -0.415998
vn -0.909200 0.017341 -0.415998
vn -0.909200 0.017341 -0.415998
vn -0.909200 0.017341 -0.415998
vn -0.909200 0.017341 -0.415998
vn -0.909200 0.017341 -0.415998
vn -0.909200 0.017341 -0.415998
vn -0.909200 0.017341 -0.415998
vn -0.909200 0.017341 -0.415998
vn -0.909200 0.017341 -0.415998
vn -0.909200 0.017341 -0.415998
vn -0.909200 0.017341 -0.415998
vn -0.909200 0.017341 -0.415998
vn -0.909200 0.017341 -0.415998
vn -0.909200 0.017341 -0.415998
vn -0.909200 0.017341 -0.415998
vn -0.909200 0.017341 -0.415998
vn -0.909200 0.017341 -0.415998
vn -0.909200 0.017341 -0.415998
vn -0.909200 0.017341 -0.415998
vn -0.909200 0.017341 -0.415998
vn -0.909200 0.017341 -0.415998
vn -0.909200 0.017341 -0.415998
vn -0.909200 0.017341 -0.415998
vn -0.909200 0.017341 -0.415998
vn -0.909200 0.017341 -0.415998
vn -0.909200 0.017341 -0.415998
vn -0.909200 0.017341 -0.415998
vn -0.909200 0.017341 -0.415998
vn -0.909200 0.017341 -0.415998
vn -0.909200 0.017341 -0.415998
vn -0.909200 0.017341 -0.415998
vn -0.909200 0.017341 -0.415998
vn -0.909200 0.017341 -0.415998
vn -0.909200 0.017341 -0.415998
vn -0.909200 0.017341 -0.415998
vn -0.909200 0.017341 -0.415998
vn -0.909200 0.017341 -0.415998
vn -0.909200 0.017341 -0.415998
vn -0.909200 0.017341 -0.415998
vn -0.909200 0.017341 -0.415998
vn -0.909200 0.017341 -0.415998
vn -0.909200 0.017341 -0.415998
vn -0.909200 0.017341 -0.415998
vn -0.909200 0.017341 -0.415998
vn -0.909200 0.017341 -0.415998
vn -0.909200 0.017341 -0.415998
vn -0.909200 0.017341 -0.415998
vn -0.909200 0.017341 -0.415998
vn -0.909200 0.017341 -0.415998
vn -0.909200 0.017341 -0.415998
vn -0.909200 0.017341 -0.415998
vn -0.909200 0.017341 -0.415998
vn -0.909200 0.017341 -0.415998
vn -0.909200 0.017341 -0.415998
vn -0.909200 0.017341 -0.415998
s 1
g pPlane1
usemtl initialShadingGroup
f 1/1/1 2/2/2 9/9/3 8/8/4
f 2/2/2 3/3/5 10/10/6 9/9/3
f 3/3/5 4/4/7 11/11/8 10/10/6
f 4/4/7 5/5/9 12/12/10 11/11/8
f 5/5/9 6/6/11 13/13/12 12/12/10
f 6/6/11 7/7/13 14/14/14 13/13/12
f 8/8/4 9/9/3 16/16/15 15/15/16
f 9/9/3 10/10/6 17/17/17 16/16/15
f 10/10/6 11/11/8 18/18/18 17/17/17
f 11/11/8 12/12/10 19/19/19 18/18/18
f 12/12/10 13/13/12 20/20/20 19/19/19
f 13/13/12 14/14/14 21/21/21 20/20/20
f 15/15/16 16/16/15 23/23/22 22/22/23
f 16/16/15 17/17/17 24/24/24 23/23/22
f 17/17/17 18/18/18 25/25/25 24/24/24
f 18/18/18 19/19/19 26/26/26 25/25/25
f 19/19/19 20/20/20 27/27/27 26/26/26
f 20/20/20 21/21/21 28/28/28 27/27/27
f 22/22/23 23/23/22 30/30/29 29/29/30
f 23/23/22 24/24/24 31/31/31 30/30/29
f 24/24/24 25/25/25 32/32/32 31/31/31
f 25/25/25 26/26/26 33/33/33 32/32/32
f 26/26/26 27/27/27 34/34/34 33/33/33
f 27/27/27 28/28/28 35/35/35 34/34/34
f 29/29/30 30/30/29 37/37/36 36/36/37
f 30/30/29 31/31/31 38/38/38 37/37/36
f 31/31/31 32/32/32 39/39/39 38/38/38
f 32/32/32 33/33/33 40/40/40 39/39/39
f 33/33/33 34/34/34 41/41/41 40/40/40
f 34/34/34 35/35/35 42/42/42 41/41/41
f 36/36/37 37/37/36 44/44/43 43/43/44
f 37/37/36 38/38/38 45/45/45 44/44/43
f 38/38/38 39/39/39 46/46/46 45/45/45
f 39/39/39 40/40/40 47/47/47 46/46/46
f 40/40/40 41/41/41 48/48/48 47/47/47
f 41/41/41 42/42/42 49/49/49 48/48/48
f 43/43/44 44/44/43 51/51/50 50/50/51
f 44/44/43 45/45/45 52/52/52 51/51/50
f 45/45/45 46/46/46 53/53/53 52/52/52
f 46/46/46 47/47/47 54/54/54 53/53/53
f 47/47/47 48/48/48 55/55/55 54/54/54
f 48/48/48 49/49/49 56/56/56 55/55/55
f 50/50/51 51/51/50 58/58/57 57/57/58
f 51/51/50 52/52/52 59/59/59 58/58/57
f 52/52/52 53/53/53 60/60/60 59/59/59
f 53/53/53 54/54/54 61/61/61 60/60/60
f 54/54/54 55/55/55 62/62/62 61/61/61
f 55/55/55 56/56/56 63/63/63 62/62/62
f 57/57/58 58/58/57 65/65/64 64/64/65
f 58/58/57 59/59/59 66/66/66 65/65/64
f 59/59/59 60/60/60 67/67/67 66/66/66
f 60/60/60 61/61/61 68/68/68 67/67/67
f 61/61/61 62/62/62 69/69/69 68/68/68
f 62/62/62 63/63/63 70/70/70 69/69/69
f 64/64/65 65/65/64 72/72/71 71/71/72
f 65/65/64 66/66/66 73/73/73 72/72/71
f 66/66/66 67/67/67 74/74/74 73/73/73
f 67/67/67 68/68/68 75/75/75 74/74/74
f 68/68/68 69/69/69 76/76/76 75/75/75
f 69/69/69 70/70/70 77/77/77 76/76/76
