# This file uses centimeters as units for non-parametric coordinates.

mtllib vplane2.mtl
g default
v -6.104449 7.361954 25.164973
v -6.104449 -0.937118 25.164973
v -6.104449 7.361954 -11.053996
v -6.104449 -0.937118 -11.053996
vt 0.000000 0.000000
vt 1.000000 0.000000
vt 0.000000 1.000000
vt 1.000000 1.000000
vn 1.000000 0.000000 0.000000
vn 1.000000 0.000000 0.000000
vn 1.000000 0.000000 0.000000
vn 1.000000 0.000000 0.000000
s off
g pPlane4
usemtl initialShadingGroup
f 1/1/1 2/2/2 4/4/3 3/3/4
