# This file uses centimeters as units for non-parametric coordinates.

mtllib vplane1.mtl
g default
v 3.655849 -0.937118 26.515879
v 3.655849 7.361954 26.515879
v 3.655849 -0.937118 -11.117563
v 3.655849 7.361954 -11.117563
vt 0.000000 0.000000
vt 1.000000 0.000000
vt 0.000000 1.000000
vt 1.000000 1.000000
vn -1.000000 0.000000 0.000000
vn -1.000000 0.000000 0.000000
vn -1.000000 0.000000 0.000000
vn -1.000000 0.000000 0.000000
s off
g pPlane1
usemtl initialShadingGroup
f 1/1/1 2/2/2 4/4/3 3/3/4
